<svg width="1000" height="148" viewBox="0 0 1000 148" fill="none" xmlns="http://www.w3.org/2000/svg">
<path d="M98.8921 92.3055L98.9046 96.2649C94.3076 106.922 94.3076 150.904 69.7638 147.712C67.3838 147.907 59.2408 142.84 59.2408 134.656C59.2408 130.174 59.6305 124.523 60.0203 120.625C56.1228 128.615 39.1691 147.907 23.7743 147.907C8.96406 147.907 0 138.358 0 127.251C0 114.974 11.4974 103.087 44.4306 90.0304C44.8203 89.8355 45.4049 89.6406 45.9895 89.4458L48.5229 88.4714C48.9126 88.2765 49.1075 88.2765 49.3023 88.0817C55.7331 85.3535 60.2151 79.1176 60.41 71.9074C60.41 71.7125 60.41 71.5176 60.41 71.3228V70.933C60.41 70.5433 60.41 70.1535 60.41 69.7638C60.41 69.7638 60.41 69.7638 60.41 69.5689C60.41 69.1792 60.2151 68.7894 60.2151 68.5946C60.2151 68.3997 60.2151 68.3997 60.2151 68.2048C60.0202 67.8151 60.0203 67.4253 60.0203 67.0356C59.8254 66.8407 59.8254 66.451 59.6305 66.0613C58.851 63.7228 57.6818 61.5792 56.1228 59.6305C55.928 59.4356 55.928 59.2408 55.7331 59.2408C55.3434 58.6562 55.1485 58.4613 54.9536 58.2664H54.7587C53.3946 56.5126 51.6408 55.5382 49.6921 54.7587C47.3536 53.7844 44.6254 53.3946 41.5075 53.3946C40.3383 53.3946 38.9742 53.5895 37.805 53.7844C37.0255 53.7844 36.246 53.9793 35.6614 54.1741C33.1281 54.7587 30.9845 55.928 29.2306 57.2921C22.9948 62.1638 20.6563 69.7638 17.7333 73.8561L8.57432 64.3074C14.0307 60.7997 24.164 55.5382 34.4922 53.0049C35.0768 52.81 44.4306 50.4716 54.1741 52.6152C65.2818 54.7587 73.6612 61.1895 74.4407 68.7895C74.4407 68.9843 74.4407 68.9843 74.4407 68.9843C75.8048 79.5074 61.3843 84.7689 61.3843 84.7689L46.3793 91.1996C19.2922 102.697 12.8615 108.153 12.8615 121.794C12.8615 131.733 21.6307 139.722 32.9332 139.722C45.5998 139.722 58.4613 122.769 60.2151 116.728C60.2151 116.728 62.1638 111.271 68.3997 110.882C74.6356 110.492 74.2458 117.117 74.2458 117.117C74.051 120.82 74.051 123.743 74.051 125.692C74.051 136.215 75.4151 141.476 79.1176 141.476C87.1807 142.194 97.3331 94.0593 98.8921 92.3055Z" fill="white"/>
<path d="M150.156 53.5895C150.74 53.5895 151.52 53.5895 152.104 53.5895V66.8407C146.648 65.8664 140.022 64.3074 132.617 64.3074C119.756 64.3074 112.546 76.974 112.546 105.62V115.558C112.546 134.656 112.546 146.348 112.546 146.348H98.9046C98.9046 146.348 98.7097 125.302 98.7097 117.312C98.7097 116.923 98.7097 116.923 98.7097 116.923C98.7097 116.728 98.7097 115.558 98.7097 115.558C98.7097 115.558 98.7097 114.389 98.9046 113.025V53.5895H112.351V77.3638C122.874 63.1382 137.489 53.5895 150.156 53.5895Z" fill="white"/>
<path d="M171.76 36.246C166.304 36.246 162.212 31.9588 162.212 26.5025C162.212 21.2409 166.304 16.7589 171.76 16.7589C177.022 16.7589 181.504 21.2409 181.504 26.5025C181.504 31.9588 177.022 36.246 171.76 36.246ZM178.776 146.348H164.745V53.7844H178.776V146.348Z" fill="white"/>
<path d="M233.311 92.174C248.9 97.4355 264.88 103.087 264.88 119.651C264.88 136.02 250.459 147.907 231.947 147.907C212.849 147.907 203.69 143.425 196.285 141.281C196.09 141.281 196.09 141.281 195.896 141.087V122.379C195.896 122.379 219.28 152.584 246.952 143.425C253.382 140.112 255.916 134.266 255.916 127.835C255.916 115.169 241.495 110.297 226.49 105.425C211.095 100.164 195.506 94.3175 195.506 79.5073C195.506 60.6049 214.213 52.0305 229.413 52.0305C244.418 52.0305 249.485 53.5895 259.813 55.1485H260.398C260.398 55.3434 260.398 55.3433 260.398 55.3433H261.372V73.0766C244.224 54.9536 224.931 53.5895 223.372 53.9793C223.177 53.9793 223.177 53.9793 223.177 53.9793C211.68 55.5382 204.275 61.3843 204.275 69.5689C204.275 82.2355 218.695 86.9124 233.311 92.174Z" fill="white"/>
<path d="M330.694 133.681L331.669 134.656C325.823 141.476 318.418 146.348 310.233 146.348C297.956 146.348 292.5 138.553 292.5 120.82V54.7587H272.233V53.5895C276.715 53.5895 281.197 52.81 285.095 51.6408C302.243 45.9896 305.751 30.5947 305.751 30.5947H306.336V53.5895H329.72V54.7587H306.336V120.235C306.336 133.487 310.623 140.502 318.418 140.502C322.705 140.502 326.992 138.164 330.694 133.681Z" fill="white"/>
<path d="M385.777 52.0305C411.89 52.0305 431.182 70.3484 431.182 98.6047C431.182 114.194 422.413 130.564 408.577 139.917C401.172 144.984 392.403 147.907 382.854 147.907C372.721 147.907 363.367 145.179 355.962 139.917C344.465 132.123 337.255 118.676 337.255 101.723C337.255 75.2202 357.521 52.0305 385.777 52.0305ZM403.121 139.917C411.695 132.707 416.177 119.456 416.177 101.528C416.177 78.533 403.9 53.7844 383.634 53.7844C362.003 53.7844 352.455 71.7125 352.455 98.6047C352.455 114.584 358.496 131.343 369.408 139.917C374.085 143.62 379.542 145.958 385.972 145.958C392.793 145.958 398.639 143.815 403.121 139.917Z" fill="white"/>
<path d="M484.078 10.7179C471.216 10.7179 464.006 23.3845 464.006 52.0305V53.5895H484.078V54.7587H464.006V61.969C464.006 81.0663 464.201 146.348 464.201 146.348H450.365C450.365 146.348 450.17 71.7125 450.17 63.7228C450.17 63.3331 450.17 63.3331 450.17 63.3331C450.17 63.1382 450.17 61.969 450.17 61.969C450.17 61.969 450.365 57.8767 450.755 54.7587H434.775V53.5895H450.95C450.95 53.0049 451.145 52.4203 451.145 52.0305C456.991 23.5794 481.544 0 501.811 0C502.396 0 502.98 0 503.565 0V13.2512C498.108 12.2769 491.483 10.7179 484.078 10.7179Z" fill="white"/>
<path d="M586.88 100.224H588.439C582.203 113.67 569.165 130.953 556.693 139.333C556.303 139.528 555.913 139.722 555.524 139.917C547.729 144.984 538.765 147.907 528.826 147.907C517.719 147.907 508.365 144.984 500.765 139.917C489.268 132.123 482.642 119.261 482.642 103.671C482.642 77.5586 505.637 54.5639 529.801 52.2254C529.801 52.2254 536.232 51.6408 540.129 52.4203C543.442 52.6152 547.729 53.5895 552.211 55.7331C552.406 55.7331 552.796 55.928 552.99 56.1228C553.38 56.3177 553.77 56.5126 553.965 56.5126C555.134 57.2921 556.108 57.8767 557.083 58.6562C557.278 58.6562 557.278 58.6562 557.278 58.6562C559.226 60.2151 560.785 61.969 562.149 63.7228C562.149 63.7228 562.149 63.7228 562.149 63.9177C565.072 67.8151 567.216 73.0766 567.801 80.092C567.801 80.2868 567.801 80.2868 567.801 80.4817C567.801 82.2355 567.606 89.4458 557.278 89.4458H493.945C493.75 91.7842 493.555 94.3175 493.555 96.8509C493.555 119.456 513.237 137.189 538.18 137.189C559.616 137.189 576.747 120.491 586.88 100.224ZM494.334 86.7176C494.334 87.1073 494.334 87.6919 494.139 88.0817H546.56C549.483 88.0817 552.016 85.7432 552.016 82.8202V82.6253C551.821 75.4151 550.262 69.9587 547.924 66.2561C547.924 66.0613 547.924 66.0613 547.729 66.0613C545.585 62.3587 542.662 60.0203 539.739 58.6562C539.544 58.4613 539.349 58.4613 539.155 58.2664C538.765 58.0715 538.18 57.8767 537.791 57.6818C535.257 56.7074 532.139 56.1228 528.632 56.1228C514.016 56.1228 502.324 63.1382 496.868 77.3638V77.5586C496.283 78.7279 495.893 79.8971 495.698 81.2612C495.114 83.2099 494.334 85.5483 494.334 86.7176Z" fill="white"/>
<path d="M636.952 53.5895C637.537 53.5895 638.316 53.5895 638.901 53.5895V66.8407C633.445 65.8664 626.819 64.3074 619.414 64.3074C606.553 64.3074 599.342 76.974 599.342 105.62V115.558C599.342 134.656 599.342 146.348 599.342 146.348H585.701C585.701 146.348 585.506 125.302 585.506 117.312C585.506 116.923 585.506 116.923 585.506 116.923C585.506 116.728 585.506 115.558 585.506 115.558C585.506 115.558 585.506 114.389 585.701 113.025V53.5895H599.147V77.3638C609.67 63.1382 624.286 53.5895 636.952 53.5895Z" fill="white"/>
<path d="M686.424 92.174C702.013 97.4355 717.993 103.087 717.993 119.651C717.993 136.02 703.572 147.907 685.06 147.907C665.962 147.907 656.803 143.425 649.398 141.281C649.203 141.281 649.203 141.281 649.008 141.087V122.379C649.008 122.379 672.393 152.584 700.065 143.425C706.495 140.112 709.029 134.266 709.029 127.835C709.029 115.169 694.608 110.297 679.603 105.425C664.208 100.164 648.619 94.3175 648.619 79.5073C648.619 60.6049 667.326 52.0305 682.526 52.0305C697.531 52.0305 702.598 53.5895 712.926 55.1485H713.511C713.511 55.3434 713.511 55.3433 713.511 55.3433H714.485V73.0766C697.336 54.9536 678.044 53.5895 676.485 53.9793C676.29 53.9793 676.29 53.9793 676.29 53.9793C664.793 55.5382 657.388 61.3843 657.388 69.5689C657.388 82.2355 671.808 86.9124 686.424 92.174Z" fill="white"/>
<path d="M779.325 52.0305C805.438 52.0305 824.73 70.3484 824.73 98.6047C824.73 114.194 815.961 130.564 802.125 139.917C794.72 144.984 785.951 147.907 776.402 147.907C766.269 147.907 756.915 145.179 749.51 139.917C738.013 132.123 730.803 118.676 730.803 101.723C730.803 75.2202 751.069 52.0305 779.325 52.0305ZM796.669 139.917C805.243 132.707 809.725 119.456 809.725 101.528C809.725 78.533 797.448 53.7844 777.182 53.7844C755.551 53.7844 746.003 71.7125 746.003 98.6047C746.003 114.584 752.043 131.343 762.956 139.917C767.633 143.62 773.09 145.958 779.52 145.958C786.341 145.958 792.187 143.815 796.669 139.917Z" fill="white"/>
<path d="M854.136 52.0305C854.721 54.9536 855.305 62.1638 855.305 62.1638V63.3331C855.305 63.3331 855.305 63.5279 855.305 63.9177C855.305 71.9074 855.11 146.543 855.11 146.543H841.275C841.275 146.543 841.469 81.2612 841.469 62.1638V52.0305C841.469 23.5794 834.064 10.7179 821.398 10.7179C813.993 10.7179 807.172 12.4717 801.911 13.4461V0.19488C802.495 0.19488 803.08 0.19488 803.664 0.19488C823.736 0.19488 848.485 23.7743 854.136 52.0305Z" fill="white"/>
<path d="M883.116 36.246C877.659 36.246 873.567 31.9588 873.567 26.5025C873.567 21.2409 877.659 16.7589 883.116 16.7589C888.377 16.7589 892.859 21.2409 892.859 26.5025C892.859 31.9588 888.377 36.246 883.116 36.246ZM890.131 146.348H876.1V53.7844H890.131V146.348Z" fill="white"/>
<path d="M954.595 52.0305C980.708 52.0305 1000 70.3484 1000 98.6047C1000 114.194 991.231 130.564 977.395 139.917C969.99 144.984 961.221 147.907 951.672 147.907C941.539 147.907 932.185 145.179 924.78 139.917C913.282 132.123 906.072 118.676 906.072 101.723C906.072 75.2202 926.339 52.0305 954.595 52.0305ZM971.939 139.917C980.513 132.707 984.995 119.456 984.995 101.528C984.995 78.533 972.718 53.7844 952.451 53.7844C930.821 53.7844 921.272 71.7125 921.272 98.6047C921.272 114.584 927.313 131.343 938.226 139.917C942.903 143.62 948.359 145.958 954.79 145.958C961.61 145.958 967.457 143.815 971.939 139.917Z" fill="white"/>
<path d="M386.764 92.4265C385.733 91.008 385.217 89.9118 385.217 89.1381H384.637C384.637 89.9118 384.121 91.008 383.089 92.4265C382.057 93.716 380.832 95.0701 379.414 96.4886C378.124 97.7782 376.77 98.9388 375.352 99.9705C374.062 101.002 373.03 101.518 372.257 101.518V102.098C373.03 102.098 374.062 102.614 375.352 103.646C376.77 104.677 378.124 105.902 379.414 107.321C380.832 108.611 382.057 109.965 383.089 111.383C384.121 112.673 384.637 113.704 384.637 114.478H385.217C385.217 113.704 385.733 112.673 386.764 111.383C387.796 109.965 388.957 108.611 390.246 107.321C391.665 105.902 393.019 104.677 394.308 103.646C395.727 102.614 396.823 102.098 397.597 102.098V101.518C396.823 101.518 395.727 101.002 394.308 99.9705C393.019 98.9388 391.665 97.7782 390.246 96.4886C388.957 95.0701 387.796 93.716 386.764 92.4265Z" fill="white"/>
<path d="M752.584 50.0515L793 25.3219L781.558 22L750 50.0515H752.584Z" fill="white"/>
</svg>
